<svg width="25" height="28" viewBox="0 0 25 28" fill="none" xmlns="http://www.w3.org/2000/svg">
<path d="M11 21.8438L6.21875 17.0938L8.34375 14.9688L11 17.625L16.2812 12.3438L18.4062 14.4688L11 21.8438ZM3.9375 27.125C2.83333 27.125 1.90104 26.7448 1.14062 25.9844C0.380208 25.224 0 24.2917 0 23.1875V6.4375C0 5.33333 0.380208 4.40104 1.14062 3.64062C1.90104 2.88021 2.83333 2.5 3.9375 2.5H4.8125V0H8.03125V2.5H16.5938V0H19.8125V2.5H20.6875C21.7917 2.5 22.724 2.88021 23.4844 3.64062C24.2448 4.40104 24.625 5.33333 24.625 6.4375V23.1875C24.625 24.2917 24.2448 25.224 23.4844 25.9844C22.724 26.7448 21.7917 27.125 20.6875 27.125H3.9375ZM3.9375 23.1875H20.6875V11.0625H3.9375V23.1875ZM3.9375 8.5625H20.6875V6.4375H3.9375V8.5625ZM3.9375 8.5625V6.4375V8.5625Z" fill="#6366F1"/>
</svg>
