<svg width="20" height="25" viewBox="0 0 20 25" fill="none" xmlns="http://www.w3.org/2000/svg">
<path d="M10 13.75C8.77083 13.75 7.73438 13.3281 6.89062 12.4844C6.04688 11.6406 5.625 10.6042 5.625 9.375C5.625 8.14583 6.04688 7.10938 6.89062 6.26562C7.73438 5.42188 8.77083 5 10 5C11.2292 5 12.2656 5.42188 13.1094 6.26562C13.9531 7.10938 14.375 8.14583 14.375 9.375C14.375 10.6042 13.9531 11.6406 13.1094 12.4844C12.2656 13.3281 11.2292 13.75 10 13.75ZM10 11.25C10.5417 11.25 10.9896 11.0729 11.3438 10.7188C11.6979 10.3646 11.875 9.91667 11.875 9.375C11.875 8.83333 11.6979 8.38542 11.3438 8.03125C10.9896 7.67708 10.5417 7.5 10 7.5C9.45833 7.5 9.01042 7.67708 8.65625 8.03125C8.30208 8.38542 8.125 8.83333 8.125 9.375C8.125 9.91667 8.30208 10.3646 8.65625 10.7188C9.01042 11.0729 9.45833 11.25 10 11.25ZM10 25C7.10417 24.2708 4.71354 22.6094 2.82812 20.0156C0.942708 17.4219 0 14.5417 0 11.375V3.75L10 0L20 3.75V11.375C20 14.5417 19.0573 17.4219 17.1719 20.0156C15.2865 22.6094 12.8958 24.2708 10 25ZM10 2.65625L2.5 5.46875V11.375C2.5 12.5 2.65625 13.5938 2.96875 14.6562C3.28125 15.7188 3.70833 16.7188 4.25 17.6562C5.125 17.2188 6.04167 16.875 7 16.625C7.95833 16.375 8.95833 16.25 10 16.25C11.0417 16.25 12.0417 16.375 13 16.625C13.9583 16.875 14.875 17.2188 15.75 17.6562C16.2917 16.7188 16.7188 15.7188 17.0312 14.6562C17.3438 13.5938 17.5 12.5 17.5 11.375V5.46875L10 2.65625ZM10 18.75C9.25 18.75 8.52083 18.8333 7.8125 19C7.10417 19.1667 6.42708 19.3958 5.78125 19.6875C6.38542 20.3125 7.04167 20.8542 7.75 21.3125C8.45833 21.7708 9.20833 22.125 10 22.375C10.7917 22.125 11.5417 21.7708 12.25 21.3125C12.9583 20.8542 13.6146 20.3125 14.2188 19.6875C13.5729 19.3958 12.8958 19.1667 12.1875 19C11.4792 18.8333 10.75 18.75 10 18.75Z" fill="#94A3B8"/>
</svg>
