<svg width="9" height="13" viewBox="0 0 9 13" fill="none" xmlns="http://www.w3.org/2000/svg">
<path d="M1.16667 12.8333C0.845833 12.8333 0.571181 12.7191 0.342708 12.4906C0.114236 12.2622 0 11.9875 0 11.6667V1.16667C0 0.845833 0.114236 0.571181 0.342708 0.342708C0.571181 0.114236 0.845833 0 1.16667 0H7C7.32083 0 7.59549 0.114236 7.82396 0.342708C8.05243 0.571181 8.16667 0.845833 8.16667 1.16667V2.975C8.34167 3.04306 8.48264 3.15 8.58958 3.29583C8.69653 3.44167 8.75 3.60694 8.75 3.79167V4.95833C8.75 5.14306 8.69653 5.30833 8.58958 5.45417C8.48264 5.6 8.34167 5.70694 8.16667 5.775V11.6667C8.16667 11.9875 8.05243 12.2622 7.82396 12.4906C7.59549 12.7191 7.32083 12.8333 7 12.8333H1.16667ZM1.16667 11.6667H7V1.16667H1.16667V11.6667ZM1.16667 11.6667V1.16667V11.6667ZM2.91667 11.0833H5.25C5.41528 11.0833 5.55382 11.0274 5.66563 10.9156C5.77743 10.8038 5.83333 10.6653 5.83333 10.5C5.83333 10.3347 5.77743 10.1962 5.66563 10.0844C5.55382 9.97257 5.41528 9.91667 5.25 9.91667H2.91667C2.75139 9.91667 2.61285 9.97257 2.50104 10.0844C2.38924 10.1962 2.33333 10.3347 2.33333 10.5C2.33333 10.6653 2.38924 10.8038 2.50104 10.9156C2.61285 11.0274 2.75139 11.0833 2.91667 11.0833Z" fill="#3B82F6"/>
</svg>
