<svg width="30" height="33" viewBox="0 0 30 33" fill="none" xmlns="http://www.w3.org/2000/svg">
<path d="M13.2 26.2125L7.4625 20.5125L10.0125 17.9625L13.2 21.15L19.5375 14.8125L22.0875 17.3625L13.2 26.2125ZM4.725 32.55C3.4 32.55 2.28125 32.0938 1.36875 31.1812C0.45625 30.2687 0 29.15 0 27.825V7.725C0 6.4 0.45625 5.28125 1.36875 4.36875C2.28125 3.45625 3.4 3 4.725 3H5.775V0H9.6375V3H19.9125V0H23.775V3H24.825C26.15 3 27.2687 3.45625 28.1812 4.36875C29.0938 5.28125 29.55 6.4 29.55 7.725V27.825C29.55 29.15 29.0938 30.2687 28.1812 31.1812C27.2687 32.0938 26.15 32.55 24.825 32.55H4.725ZM4.725 27.825H24.825V13.275H4.725V27.825ZM4.725 10.275H24.825V7.725H4.725V10.275ZM4.725 10.275V7.725V10.275Z" fill="#6366F1"/>
</svg>
